<?xml version="1.0" encoding="UTF-8" standalone="no"?>
<!-- Generator: Adobe Illustrator 15.1.0, SVG Export Plug-In  -->

<svg
   xmlns:dc="http://purl.org/dc/elements/1.1/"
   xmlns:cc="http://creativecommons.org/ns#"
   xmlns:rdf="http://www.w3.org/1999/02/22-rdf-syntax-ns#"
   xmlns:svg="http://www.w3.org/2000/svg"
   xmlns="http://www.w3.org/2000/svg"
   xmlns:sodipodi="http://sodipodi.sourceforge.net/DTD/sodipodi-0.dtd"
   xmlns:inkscape="http://www.inkscape.org/namespaces/inkscape"
   version="1.1"
   x="0px"
   y="0px"
   width="487.71405"
   height="36.062027"
   viewBox="-156.268 -281.929 487.71405 36.062027"
   enable-background="new -156.268 -281.929 800 600"
   xml:space="preserve"
   id="svg3889"
   sodipodi:docname="wonderolie-logo.svg"
   inkscape:version="0.92.3 (5aff6ba, 2018-11-25)"><metadata
   id="metadata3893"><rdf:RDF><cc:Work
       rdf:about=""><dc:format>image/svg+xml</dc:format><dc:type
         rdf:resource="http://purl.org/dc/dcmitype/StillImage" /><dc:title></dc:title></cc:Work></rdf:RDF></metadata><sodipodi:namedview
   pagecolor="#ffffff"
   bordercolor="#666666"
   borderopacity="1"
   objecttolerance="10"
   gridtolerance="10"
   guidetolerance="10"
   inkscape:pageopacity="0"
   inkscape:pageshadow="2"
   inkscape:window-width="1869"
   inkscape:window-height="1021"
   id="namedview3891"
   showgrid="false"
   inkscape:zoom="1.3983333"
   inkscape:cx="281.28725"
   inkscape:cy="214.18355"
   inkscape:window-x="51"
   inkscape:window-y="27"
   inkscape:window-maximized="1"
   inkscape:current-layer="svg3889" />
<defs
   id="defs3823">
</defs>
<rect
   y="-281.90097"
   width="12.011"
   height="36.033001"
   id="rect3825"
   style="fill:#ff3800;fill-opacity:1"
   x="-156.26801" />
<rect
   x="-119.03497"
   y="-281.90097"
   width="12.011"
   height="36.033001"
   id="rect3827"
   style="fill:#ff3800;fill-opacity:1" />
<rect
   x="-100.96798"
   y="-281.90097"
   width="12.011"
   height="36.033001"
   id="rect3829" />
<rect
   x="-64.733994"
   y="-281.90097"
   width="12.011"
   height="36.033001"
   id="rect3831" />
<rect
   x="-87.755981"
   y="-257.27795"
   width="21.82"
   height="11.41"
   id="rect3833" />
<rect
   x="-87.755981"
   y="-281.90097"
   width="21.82"
   height="11.41"
   id="rect3835" />
<rect
   x="-46.666996"
   y="-281.90097"
   width="12.011"
   height="36.033001"
   id="rect3837" />
<rect
   x="-9.4349966"
   y="-281.90097"
   width="12.011"
   height="36.033001"
   id="rect3839" />
<rect
   x="8.6320038"
   y="-281.90097"
   width="12.011"
   height="36.033001"
   id="rect3841" />
<polygon
   points="213.145,24.651 201.133,36.062 201.133,0.028 213.145,11.438 "
   id="polygon3843"
   transform="translate(-156.26799,-281.92897)" />
<rect
   x="21.844009"
   y="-257.27795"
   width="21.82"
   height="11.41"
   id="rect3845" />
<rect
   x="21.844009"
   y="-281.90097"
   width="21.82"
   height="11.41"
   id="rect3847" />
<rect
   x="62.933014"
   y="-281.90097"
   width="12.011"
   height="36.033001"
   id="rect3849" />
<rect
   x="76.14402"
   y="-257.27795"
   width="33.032001"
   height="11.41"
   id="rect3851" />
<rect
   x="76.14402"
   y="-281.90097"
   width="33.032001"
   height="11.41"
   id="rect3853" />
<rect
   x="76.14402"
   y="-268.68896"
   width="31.841"
   height="9.6079998"
   id="rect3855" />
<rect
   x="285.20203"
   y="-281.90097"
   width="12.012"
   height="36.033001"
   id="rect3857" />
<rect
   x="298.41403"
   y="-257.27795"
   width="33.032001"
   height="11.41"
   id="rect3859" />
<rect
   x="298.41403"
   y="-281.90097"
   width="33.032001"
   height="11.41"
   id="rect3861" />
<rect
   x="298.41403"
   y="-268.68896"
   width="31.841"
   height="9.6079998"
   id="rect3863" />
<polygon
   points="271.501,36.062 271.501,11.438 283.512,0.028 283.512,36.062 "
   id="polygon3865"
   transform="translate(-156.26799,-281.92897)" />
<rect
   x="128.444"
   y="-281.90097"
   width="29.032"
   height="11.41"
   id="rect3867" />
<rect
   x="163.53299"
   y="-281.92798"
   width="12.011"
   height="36.033001"
   id="rect3869" />
<rect
   x="199.76498"
   y="-281.92798"
   width="12.012"
   height="36.033001"
   id="rect3871" />
<rect
   x="176.74399"
   y="-257.30698"
   width="21.820999"
   height="11.412"
   id="rect3873" />
<rect
   x="176.74399"
   width="21.820999"
   height="11.411"
   id="rect3875"
   y="-281.92899" />
<polygon
   points="372.821,24.622 372.821,0.001 384.832,0.001 384.832,36.034 "
   id="polygon3877"
   transform="translate(-156.26799,-281.92897)" />
<rect
   x="229.76401"
   y="-257.30698"
   width="30.312"
   height="11.412"
   id="rect3879" />
<rect
   x="266.13202"
   y="-281.92798"
   width="12.011"
   height="36.033001"
   id="rect3881" />
<polygon
   points="13.212,36.062 13.212,24.651 24.022,18.045 24.022,29.454 "
   id="polygon3883"
   style="fill:#ff3800;fill-opacity:1"
   transform="translate(-156.26799,-281.92897)" />
<polygon
   points="25.223,29.454 25.223,18.045 36.033,24.651 36.033,36.062 "
   id="polygon3885"
   style="fill:#ff3800;fill-opacity:1"
   transform="translate(-156.26799,-281.92897)" />
<polygon
   points="122.812,13.24 122.812,0.028 145.633,22.849 145.633,36.062 "
   id="polygon3887"
   transform="translate(-156.26799,-281.92897)" />
</svg>